<?xml version="1.0" encoding="UTF-8"?>
<svg version="1.1" xmlns="http://www.w3.org/2000/svg" width="92" height="92">
<path d="M0 0 C30.36 0 60.72 0 92 0 C92 30.36 92 60.72 92 92 C61.64 92 31.28 92 0 92 C0 61.64 0 31.28 0 0 Z " fill="#FDEE01" transform="translate(0,0)"/>
<path d="M0 0 C30.36 0 60.72 0 92 0 C92 21.78 92 43.56 92 66 C90.02 65.505 90.02 65.505 88 65 C87.97421875 64.11699219 87.9484375 63.23398437 87.921875 62.32421875 C87.32227628 49.6372549 84.32158815 38.73533883 75.41015625 29.3203125 C71.36375361 25.64522681 66.79083683 22.96705635 62.0390625 20.296875 C60 19 60 19 59 17 C50.97867572 13.79147029 40.99204244 13.62558208 33 17 C32.505 18.485 32.505 18.485 32 20 C29.99609375 21.140625 29.99609375 21.140625 27.4375 22.25 C17.18343732 27.17955652 11.85962289 34.15669492 6.90625 44.22265625 C5.6100066 48.19519528 5.27427451 52.16593606 4.875 56.3125 C4.78863281 57.14845703 4.70226562 57.98441406 4.61328125 58.84570312 C4.40234458 60.8964763 4.20028354 62.94815903 4 65 C2.02 65.495 2.02 65.495 0 66 C0 44.22 0 22.44 0 0 Z " fill="#FEFEFD" transform="translate(0,0)"/>
<path d="M0 0 C1.60875 0.45375 3.2175 0.9075 4.875 1.375 C32.20730331 8.05763731 64.99396626 7.71600964 92 0 C92 6.6 92 13.2 92 20 C61.64 20 31.28 20 0 20 C0 13.4 0 6.8 0 0 Z " fill="#FEFEFD" transform="translate(0,72)"/>
<path d="M0 0 C0.63808594 0.45334717 1.27617187 0.90669434 1.93359375 1.3737793 C8.33858456 5.02568494 15.23708899 4.63443298 22.3918457 4.53735352 C24.73878985 4.51058136 27.08093725 4.53716258 29.42773438 4.5690918 C37.17264651 4.58490497 43.62923113 4.20726159 50.40283203 0.00610352 C54.34629737 -2.31269048 57.93773856 -1.44231515 62.18359375 -0.42700195 C64.90881128 0.29601494 67.61103256 1.06598579 70.30859375 1.88549805 C70.30859375 2.54549805 70.30859375 3.20549805 70.30859375 3.88549805 C45.20962134 13.7873225 5.85479226 12.40089755 -19.69140625 3.88549805 C-19.36140625 2.89549805 -19.03140625 1.90549805 -18.69140625 0.88549805 C-3.76201915 -2.47887088 -3.76201915 -2.47887088 0 0 Z " fill="#EED20A" transform="translate(20.69140625,69.114501953125)"/>
<path d="M0 0 C5.61 0 11.22 0 17 0 C17 4.95 17 9.9 17 15 C8.09 15.99 8.09 15.99 -1 17 C-1.0728152 11.02915328 -0.98670381 5.92022284 0 0 Z " fill="#EED200" transform="translate(5,47)"/>
<path d="M0 0 C0.66 0 1.32 0 2 0 C3.6317293 2.47410219 5.14700164 4.93659659 6.625 7.5 C7.25535156 8.57314453 7.25535156 8.57314453 7.8984375 9.66796875 C8.93888589 11.44146033 9.97028904 13.22025266 11 15 C8.16916528 17.88469839 5.74291305 20.35676988 2 22 C-2.09550699 21.07851093 -4.85393083 18.69663072 -8 16 C-6.46197215 10.15549417 -3.5439162 4.87288478 0 0 Z " fill="#4D4F4A" transform="translate(45,28)"/>
<path d="M0 0 C3 1 3 1 4.1328125 2.92578125 C4.62394531 4.10720703 4.62394531 4.10720703 5.125 5.3125 C5.45757812 6.09238281 5.79015625 6.87226562 6.1328125 7.67578125 C7.81588613 12.18672183 8.11093851 15.90614931 8.0625 20.75 C8.05347656 21.92046875 8.04445313 23.0909375 8.03515625 24.296875 C8.02355469 25.18890625 8.01195313 26.0809375 8 27 C6.02 26.67 4.04 26.34 2 26 C1.93941406 24.70964844 1.87882812 23.41929688 1.81640625 22.08984375 C1.73194119 20.37238745 1.64729623 18.65493998 1.5625 16.9375 C1.52318359 16.08994141 1.48386719 15.24238281 1.44335938 14.36914062 C1.19996611 9.51999791 0.77401958 4.79371788 0 0 Z " fill="#F5DF07" transform="translate(80,37)"/>
<path d="M0 0 C0.33 0 0.66 0 1 0 C1 6.6 1 13.2 1 20 C-2.81433013 18.47426795 -4.96552304 17.47253678 -8 15 C-6.53025751 9.26800429 -3.55513098 4.66416601 0 0 Z " fill="#0C0C0A" transform="translate(45,29)"/>
<path d="M0 0 C0.59941406 0.30292969 1.19882812 0.60585938 1.81640625 0.91796875 C4.5656578 2.28029913 6.99366373 3.32510819 10 4 C12.72981832 2.64599355 12.72981832 2.64599355 15 1 C15.66 1.33 16.32 1.66 17 2 C14.69 5.3 12.38 8.6 10 12 C6.05124418 10.68374806 5.45007287 8.94634602 3.3125 5.4375 C2.68988281 4.42558594 2.06726562 3.41367187 1.42578125 2.37109375 C0.95527344 1.58863281 0.48476563 0.80617187 0 0 Z " fill="#19180A" transform="translate(37,48)"/>
<path d="M0 0 C0.33 0.66 0.66 1.32 1 2 C1.66 2.33 2.32 2.66 3 3 C0.73736594 5.26263406 -1.00857046 5.93163231 -4 7 C-4.680625 7.268125 -5.36125 7.53625 -6.0625 7.8125 C-8 8 -8 8 -10.25 6.5625 C-10.8275 6.046875 -11.405 5.53125 -12 5 C-11.67 4.34 -11.34 3.68 -11 3 C-9.948125 3.37125 -9.948125 3.37125 -8.875 3.75 C-4.85468598 4.09959252 -3.11661638 2.39182187 0 0 Z " fill="#EDE408" transform="translate(53,45)"/>
<path d="M0 0 C0.66 0.33 1.32 0.66 2 1 C0.85821872 2.66944521 -0.28852905 4.3354948 -1.4375 6 C-2.07558594 6.928125 -2.71367188 7.85625 -3.37109375 8.8125 C-3.90863281 9.534375 -4.44617187 10.25625 -5 11 C-5.33 11 -5.66 11 -6 11 C-6.375 7.75 -6.375 7.75 -6 4 C-3 1.5625 -3 1.5625 0 0 Z " fill="#4C4F4B" transform="translate(52,49)"/>
<path d="M0 0 C1.65 0 3.3 0 5 0 C5 2.31 5 4.62 5 7 C3.35 6.67 1.7 6.34 0 6 C0 4.02 0 2.04 0 0 Z " fill="#EFD300" transform="translate(83,57)"/>
</svg>
