<?xml version="1.0" encoding="UTF-8"?>
<svg version="1.1" xmlns="http://www.w3.org/2000/svg" width="204" height="192">
<path d="M0,0 L204,0 L204,192 L0,192 Z " fill="#3A3B3C" transform="translate(0,0)"/>
<path d="M0,0 L93,0 L93,1 L94,1 L94,2 L95,2 L95,76 L88,76 L88,77 L86,77 L86,78 L81,78 L81,79 L80,79 L80,80 L76,80 L76,81 L74,81 L74,82 L72,82 L72,83 L71,83 L71,84 L69,84 L69,85 L68,85 L68,86 L66,86 L66,87 L65,87 L65,88 L64,88 L64,89 L63,89 L63,90 L61,90 L61,91 L60,91 L60,92 L59,92 L59,93 L58,93 L58,94 L57,94 L57,95 L56,95 L56,96 L55,96 L55,97 L54,97 L54,98 L53,98 L53,100 L52,100 L52,101 L51,101 L51,103 L50,103 L50,105 L49,105 L49,106 L48,106 L48,108 L47,108 L47,110 L46,110 L46,112 L45,112 L45,114 L44,114 L44,117 L43,117 L43,123 L42,123 L42,127 L41,127 L41,146 L42,146 L42,151 L43,151 L43,154 L44,154 L44,157 L45,157 L45,160 L46,160 L46,162 L47,162 L47,164 L48,164 L48,166 L49,166 L49,167 L50,167 L50,169 L51,169 L51,171 L52,171 L52,172 L53,172 L53,173 L54,173 L54,175 L55,175 L55,176 L56,176 L56,177 L-33,177 L-33,176 L-34,176 L-34,34 L-8,34 L-8,33 L-5,33 L-5,32 L-3,32 L-3,31 L-2,31 L-2,29 L-1,29 L-1,27 L0,27 Z " fill="#E0ECFA" transform="translate(41,1)"/>
<path d="M0,0 L21,0 L21,1 L24,1 L24,2 L27,2 L27,3 L30,3 L30,4 L33,4 L33,5 L35,5 L35,6 L37,6 L37,7 L39,7 L39,8 L40,8 L40,9 L42,9 L42,10 L43,10 L43,11 L45,11 L45,12 L46,12 L46,13 L47,13 L47,14 L48,14 L48,15 L49,15 L49,16 L50,16 L50,17 L51,17 L51,18 L52,18 L52,19 L53,19 L53,20 L54,20 L54,22 L55,22 L55,23 L56,23 L56,24 L57,24 L57,26 L58,26 L58,28 L59,28 L59,30 L60,30 L60,32 L61,32 L61,34 L62,34 L62,37 L63,37 L63,40 L64,40 L64,44 L65,44 L65,63 L64,63 L64,68 L63,68 L63,71 L62,71 L62,74 L61,74 L61,76 L60,76 L60,78 L59,78 L59,80 L58,80 L58,82 L57,82 L57,84 L56,84 L56,85 L55,85 L55,87 L54,87 L54,88 L53,88 L53,89 L52,89 L52,90 L51,90 L51,91 L50,91 L50,92 L49,92 L49,93 L48,93 L48,94 L47,94 L47,95 L46,95 L46,96 L45,96 L45,97 L44,97 L44,98 L42,98 L42,99 L41,99 L41,100 L39,100 L39,101 L38,101 L38,102 L36,102 L36,103 L34,103 L34,104 L32,104 L32,105 L28,105 L28,106 L26,106 L26,107 L21,107 L21,108 L-1,108 L-1,107 L-5,107 L-5,106 L-8,106 L-8,105 L-11,105 L-11,104 L-13,104 L-13,103 L-15,103 L-15,102 L-16,102 L-16,101 L-18,101 L-18,100 L-19,100 L-19,99 L-21,99 L-21,98 L-22,98 L-22,97 L-23,97 L-23,96 L-25,96 L-25,95 L-26,95 L-26,94 L-27,94 L-27,93 L-28,93 L-28,92 L-29,92 L-29,91 L-30,91 L-30,90 L-31,90 L-31,88 L-32,88 L-32,87 L-33,87 L-33,86 L-34,86 L-34,84 L-35,84 L-35,83 L-36,83 L-36,81 L-37,81 L-37,79 L-38,79 L-38,77 L-39,77 L-39,75 L-40,75 L-40,72 L-41,72 L-41,69 L-42,69 L-42,65 L-43,65 L-43,43 L-42,43 L-42,38 L-41,38 L-41,36 L-40,36 L-40,33 L-39,33 L-39,31 L-38,31 L-38,29 L-37,29 L-37,27 L-36,27 L-36,26 L-35,26 L-35,24 L-34,24 L-34,23 L-33,23 L-33,21 L-32,21 L-32,20 L-31,20 L-31,19 L-30,19 L-30,18 L-29,18 L-29,17 L-28,17 L-28,16 L-27,16 L-27,15 L-26,15 L-26,14 L-25,14 L-25,13 L-24,13 L-24,12 L-23,12 L-23,11 L-22,11 L-22,10 L-20,10 L-20,9 L-19,9 L-19,8 L-17,8 L-17,7 L-15,7 L-15,6 L-14,6 L-14,5 L-11,5 L-11,4 L-9,4 L-9,3 L-6,3 L-6,2 L-2,2 L-2,1 L0,1 Z " fill="#2A8CE5" transform="translate(132,83)"/>
<path d="M0,0 L62,0 L62,131 L61,131 L61,124 L60,124 L60,121 L59,121 L59,118 L58,118 L58,114 L57,114 L57,113 L56,113 L56,110 L55,110 L55,108 L54,108 L54,106 L53,106 L53,105 L52,105 L52,103 L51,103 L51,102 L50,102 L50,100 L49,100 L49,99 L48,99 L48,98 L47,98 L47,97 L46,97 L46,96 L45,96 L45,94 L44,94 L44,93 L42,93 L42,92 L41,92 L41,91 L40,91 L40,90 L39,90 L39,89 L37,89 L37,88 L36,88 L36,87 L35,87 L35,86 L33,86 L33,85 L32,85 L32,84 L30,84 L30,83 L27,83 L27,82 L25,82 L25,81 L23,81 L23,80 L21,80 L21,79 L17,79 L17,78 L13,78 L13,77 L7,77 L7,76 L1,76 L1,2 L0,2 Z " fill="#FEFEFE" transform="translate(142,0)"/>
<path d="M0,0 L6,0 L6,1 L8,1 L8,2 L10,2 L10,4 L11,4 L11,5 L12,5 L12,7 L13,7 L13,8 L14,8 L14,10 L15,10 L15,11 L16,11 L16,13 L17,13 L17,14 L18,14 L18,15 L19,15 L19,17 L20,17 L20,18 L21,18 L21,20 L22,20 L22,21 L23,21 L23,23 L24,23 L24,24 L25,24 L25,26 L26,26 L26,27 L27,27 L27,28 L28,28 L28,30 L29,30 L29,31 L30,31 L30,33 L31,33 L31,34 L32,34 L32,36 L33,36 L33,37 L34,37 L34,38 L35,38 L35,40 L36,40 L36,41 L37,41 L37,43 L38,43 L38,44 L39,44 L39,45 L40,45 L40,47 L41,47 L41,54 L40,54 L40,55 L39,55 L39,56 L38,56 L38,57 L37,57 L37,58 L36,58 L36,60 L35,60 L35,61 L34,61 L34,62 L33,62 L33,63 L32,63 L32,65 L31,65 L31,66 L30,66 L30,67 L29,67 L29,68 L28,68 L28,69 L27,69 L27,71 L26,71 L26,72 L25,72 L25,73 L24,73 L24,74 L23,74 L23,76 L22,76 L22,77 L21,77 L21,78 L20,78 L20,80 L19,80 L19,81 L18,81 L18,82 L17,82 L17,83 L16,83 L16,84 L15,84 L15,86 L14,86 L14,87 L13,87 L13,88 L12,88 L12,89 L11,89 L11,91 L10,91 L10,92 L9,92 L9,93 L8,93 L8,94 L6,94 L6,95 L1,95 L1,94 L0,94 L0,93 L-1,93 L-1,92 L-2,92 L-2,91 L-3,91 L-3,90 L-4,90 L-4,89 L-5,89 L-5,87 L-6,87 L-6,86 L-7,86 L-7,85 L-8,85 L-8,84 L-9,84 L-9,82 L-10,82 L-10,81 L-11,81 L-11,80 L-12,80 L-12,79 L-13,79 L-13,78 L-14,78 L-14,76 L-15,76 L-15,75 L-16,75 L-16,74 L-17,74 L-17,72 L-18,72 L-18,71 L-19,71 L-19,70 L-20,70 L-20,69 L-21,69 L-21,68 L-22,68 L-22,67 L-23,67 L-23,65 L-24,65 L-24,64 L-25,64 L-25,63 L-26,63 L-26,62 L-27,62 L-27,60 L-28,60 L-28,59 L-29,59 L-29,58 L-30,58 L-30,57 L-31,57 L-31,55 L-32,55 L-32,54 L-33,54 L-33,47 L-32,47 L-32,45 L-31,45 L-31,44 L-30,44 L-30,42 L-29,42 L-29,41 L-28,41 L-28,39 L-27,39 L-27,38 L-26,38 L-26,36 L-25,36 L-25,35 L-24,35 L-24,33 L-23,33 L-23,32 L-22,32 L-22,31 L-21,31 L-21,29 L-20,29 L-20,28 L-19,28 L-19,26 L-18,26 L-18,25 L-17,25 L-17,23 L-16,23 L-16,22 L-15,22 L-15,21 L-14,21 L-14,19 L-13,19 L-13,18 L-12,18 L-12,16 L-11,16 L-11,15 L-10,15 L-10,14 L-9,14 L-9,12 L-8,12 L-8,10 L-7,10 L-7,9 L-6,9 L-6,8 L-5,8 L-5,6 L-4,6 L-4,5 L-3,5 L-3,3 L-2,3 L-2,2 L-1,2 L-1,1 L0,1 Z " fill="#363737" transform="translate(139,90)"/>
<path d="M0,0 L1,0 L1,2 L2,2 L2,4 L3,4 L3,5 L4,5 L4,6 L5,6 L5,7 L7,7 L7,8 L106,8 L106,9 L107,9 L107,10 L108,10 L108,11 L110,11 L110,12 L111,12 L111,13 L113,13 L113,14 L115,14 L115,15 L0,15 Z " fill="#FEFEFE" transform="translate(0,177)"/>
<path d="M0,0 L6,0 L6,1 L8,1 L8,2 L10,2 L10,3 L11,3 L11,4 L12,4 L12,6 L13,6 L13,15 L12,15 L12,16 L15,16 L15,15 L16,15 L16,14 L18,14 L18,13 L19,13 L19,11 L20,11 L20,9 L21,9 L21,8 L22,8 L22,7 L26,7 L26,8 L27,8 L27,10 L28,10 L28,12 L29,12 L29,13 L30,13 L30,14 L31,14 L31,15 L33,15 L33,16 L36,16 L36,17 L43,17 L43,18 L44,18 L44,22 L43,22 L43,23 L32,23 L32,22 L30,22 L30,21 L28,21 L28,20 L27,20 L27,19 L26,19 L26,18 L25,18 L25,17 L23,17 L23,18 L22,18 L22,19 L20,19 L20,20 L19,20 L19,21 L17,21 L17,22 L16,22 L16,23 L14,23 L14,24 L-6,24 L-6,23 L-8,23 L-8,22 L-10,22 L-10,21 L-11,21 L-11,20 L-12,20 L-12,19 L-13,19 L-13,15 L-12,15 L-12,14 L-8,14 L-8,15 L-6,15 L-6,14 L-7,14 L-7,7 L-6,7 L-6,5 L-5,5 L-5,4 L-4,4 L-4,3 L-3,3 L-3,2 L-2,2 L-2,1 L0,1 Z " fill="#3C3C3C" transform="translate(34,144)"/>
<path d="M0,0 L105,0 L105,1 L106,1 L106,2 L107,2 L107,5 L106,5 L106,6 L-1,6 L-1,5 L-2,5 L-2,1 L0,1 Z " fill="#343333" transform="translate(19,66)"/>
<path d="M0,0 L107,0 L107,2 L108,2 L108,4 L107,4 L107,5 L106,5 L106,6 L0,6 L0,5 L-1,5 L-1,1 L0,1 Z " fill="#363636" transform="translate(18,46)"/>
<path d="M0,0 L1,0 L1,48 L-32,48 L-32,47 L-31,47 L-31,46 L-29,46 L-29,45 L-27,45 L-27,44 L-26,44 L-26,43 L-24,43 L-24,42 L-23,42 L-23,41 L-22,41 L-22,40 L-20,40 L-20,39 L-19,39 L-19,38 L-18,38 L-18,37 L-17,37 L-17,36 L-16,36 L-16,35 L-15,35 L-15,34 L-14,34 L-14,32 L-13,32 L-13,31 L-12,31 L-12,30 L-11,30 L-11,29 L-10,29 L-10,27 L-9,27 L-9,26 L-8,26 L-8,24 L-7,24 L-7,22 L-6,22 L-6,21 L-5,21 L-5,18 L-4,18 L-4,15 L-3,15 L-3,12 L-2,12 L-2,9 L-1,9 L-1,6 L0,6 Z " fill="#FBFBFB" transform="translate(203,144)"/>
<path d="M0,0 L71,0 L71,1 L72,1 L72,2 L73,2 L73,5 L72,5 L72,6 L71,6 L71,7 L0,7 L0,6 L-1,6 L-1,5 L-2,5 L-2,2 L-1,2 L-1,1 L0,1 Z " fill="#3B3C3C" transform="translate(19,86)"/>
<path d="M0,0 L30,0 L30,1 L29,1 L29,2 L28,2 L28,3 L27,3 L27,4 L26,4 L26,5 L25,5 L25,6 L24,6 L24,7 L23,7 L23,8 L22,8 L22,9 L21,9 L21,10 L20,10 L20,11 L19,11 L19,12 L18,12 L18,13 L17,13 L17,14 L16,14 L16,15 L15,15 L15,16 L14,16 L14,17 L13,17 L13,18 L12,18 L12,19 L11,19 L11,20 L10,20 L10,21 L9,21 L9,22 L8,22 L8,23 L7,23 L7,24 L6,24 L6,25 L5,25 L5,26 L4,26 L4,27 L3,27 L3,29 L2,29 L2,30 L1,30 L1,32 L0,32 Z " fill="#FDFDFD" transform="translate(0,0)"/>
<path d="M0,0 L54,0 L54,1 L55,1 L55,2 L56,2 L56,5 L55,5 L55,6 L54,6 L54,7 L0,7 L0,6 L-1,6 L-1,5 L-2,5 L-2,2 L-1,2 L-1,1 L0,1 Z " fill="#3C3D3D" transform="translate(19,127)"/>
<path d="M0,0 L59,0 L59,1 L60,1 L60,5 L59,5 L59,6 L0,6 L0,5 L-1,5 L-1,1 L0,1 Z " fill="#2D2C29" transform="translate(18,107)"/>
<path d="M0,0 L1,0 L1,24 L-1,24 L-1,25 L-4,25 L-4,26 L-6,26 L-6,27 L-8,27 L-8,28 L-12,28 L-12,29 L-13,29 L-13,30 L-17,30 L-17,31 L-19,31 L-19,32 L-21,32 L-21,33 L-22,33 L-22,31 L-21,31 L-21,30 L-20,30 L-20,29 L-19,29 L-19,27 L-18,27 L-18,25 L-17,25 L-17,24 L-16,24 L-16,23 L-15,23 L-15,21 L-14,21 L-14,20 L-13,20 L-13,18 L-12,18 L-12,17 L-11,17 L-11,16 L-10,16 L-10,14 L-9,14 L-9,13 L-8,13 L-8,11 L-7,11 L-7,10 L-6,10 L-6,8 L-5,8 L-5,7 L-4,7 L-4,6 L-3,6 L-3,4 L-2,4 L-2,3 L-1,3 L-1,1 L0,1 Z " fill="#EFEFEF" transform="translate(139,101)"/>
<path d="M0,0 L1,0 L1,1 L2,1 L2,2 L3,2 L3,3 L4,3 L4,5 L5,5 L5,6 L6,6 L6,8 L7,8 L7,9 L8,9 L8,11 L9,11 L9,12 L10,12 L10,14 L11,14 L11,15 L12,15 L12,16 L13,16 L13,18 L14,18 L14,19 L15,19 L15,21 L16,21 L16,22 L17,22 L17,24 L18,24 L18,25 L19,25 L19,27 L20,27 L20,28 L21,28 L21,29 L22,29 L22,31 L20,31 L20,30 L17,30 L17,29 L15,29 L15,28 L11,28 L11,27 L9,27 L9,26 L6,26 L6,25 L4,25 L4,24 L2,24 L2,23 L0,23 Z " fill="#DCE7F4" transform="translate(146,102)"/>
<path d="M0,0 L2,0 L2,20 L1,20 L1,21 L0,21 L0,22 L-20,22 L-20,20 L-18,20 L-18,19 L-17,19 L-17,17 L-15,17 L-15,16 L-14,16 L-14,15 L-13,15 L-13,14 L-12,14 L-12,13 L-11,13 L-11,12 L-10,12 L-10,11 L-9,11 L-9,10 L-8,10 L-8,9 L-7,9 L-7,8 L-6,8 L-6,7 L-5,7 L-5,6 L-4,6 L-4,5 L-3,5 L-3,4 L-2,4 L-2,3 L-1,3 L-1,2 L0,2 Z " fill="#9EB4C5" transform="translate(32,7)"/>
<path d="M0,0 L2,0 L2,1 L3,1 L3,2 L6,2 L6,3 L8,3 L8,4 L11,4 L11,5 L13,5 L13,6 L16,6 L16,7 L18,7 L18,8 L21,8 L21,25 L19,25 L19,24 L18,24 L18,23 L17,23 L17,21 L16,21 L16,20 L15,20 L15,19 L14,19 L14,18 L13,18 L13,16 L12,16 L12,15 L11,15 L11,14 L10,14 L10,13 L9,13 L9,11 L8,11 L8,10 L7,10 L7,9 L6,9 L6,8 L5,8 L5,7 L4,7 L4,5 L3,5 L3,4 L2,4 L2,3 L1,3 L1,2 L0,2 Z " fill="#EDEDED" transform="translate(119,148)"/>
<path d="M0,0 L2,0 L2,17 L-1,17 L-1,16 L-4,16 L-4,15 L-6,15 L-6,14 L-8,14 L-8,13 L-11,13 L-11,12 L-13,12 L-13,11 L-16,11 L-16,10 L-17,10 L-17,9 L-19,9 L-19,8 L-18,8 L-18,7 L-14,7 L-14,6 L-13,6 L-13,5 L-9,5 L-9,4 L-7,4 L-7,3 L-5,3 L-5,2 L-3,2 L-3,1 L0,1 Z " fill="#B8CEE1" transform="translate(138,132)"/>
<path d="M0,0 L2,0 L2,2 L0,2 L0,3 L-1,3 L-1,5 L-2,5 L-2,6 L-3,6 L-3,7 L-4,7 L-4,8 L-5,8 L-5,10 L-6,10 L-6,11 L-7,11 L-7,12 L-8,12 L-8,13 L-9,13 L-9,15 L-10,15 L-10,16 L-11,16 L-11,17 L-12,17 L-12,18 L-13,18 L-13,19 L-14,19 L-14,21 L-15,21 L-15,22 L-16,22 L-16,23 L-17,23 L-17,25 L-18,25 L-18,26 L-19,26 L-19,8 L-16,8 L-16,7 L-14,7 L-14,6 L-11,6 L-11,5 L-9,5 L-9,4 L-7,4 L-7,3 L-5,3 L-5,2 L-2,2 L-2,1 L0,1 Z " fill="#DBE6F2" transform="translate(165,148)"/>
<path d="M0,0 L2,0 L2,1 L4,1 L4,2 L7,2 L7,3 L9,3 L9,4 L11,4 L11,5 L13,5 L13,6 L17,6 L17,7 L20,7 L20,8 L21,8 L21,9 L19,9 L19,10 L17,10 L17,11 L14,11 L14,12 L12,12 L12,13 L10,13 L10,14 L7,14 L7,15 L5,15 L5,16 L2,16 L2,17 L0,17 Z " fill="#AEC6D6" transform="translate(146,132)"/>
<path d="M0,0 L2,0 L2,3 L3,3 L3,4 L107,4 L107,5 L1,5 L1,4 L0,4 Z " fill="#414244" transform="translate(17,47)"/>
<path d="M0,0 L3,0 L3,1 L2,1 L2,2 L1,2 L1,3 L0,3 L0,4 L-1,4 L-1,5 L-2,5 L-2,6 L-3,6 L-3,7 L-4,7 L-4,8 L-5,8 L-5,9 L-6,9 L-6,10 L-7,10 L-7,11 L-8,11 L-8,12 L-9,12 L-9,13 L-10,13 L-10,14 L-11,14 L-11,15 L-12,15 L-12,16 L-13,16 L-13,17 L-14,17 L-14,18 L-15,18 L-15,19 L-16,19 L-16,20 L-17,20 L-17,21 L-18,21 L-18,22 L-19,22 L-19,23 L-20,23 L-20,24 L-21,24 L-21,25 L-22,25 L-22,26 L-23,26 L-23,27 L-24,27 L-24,28 L-25,28 L-25,29 L-26,29 L-26,30 L-27,30 L-27,27 L-26,27 L-26,26 L-25,26 L-25,25 L-24,25 L-24,24 L-23,24 L-23,23 L-22,23 L-22,22 L-21,22 L-21,21 L-20,21 L-20,20 L-19,20 L-19,19 L-18,19 L-18,18 L-17,18 L-17,17 L-16,17 L-16,16 L-15,16 L-15,15 L-14,15 L-14,14 L-13,14 L-13,13 L-12,13 L-12,12 L-11,12 L-11,11 L-10,11 L-10,10 L-9,10 L-9,9 L-8,9 L-8,8 L-7,8 L-7,7 L-6,7 L-6,6 L-5,6 L-5,5 L-4,5 L-4,4 L-3,4 L-3,3 L-2,3 L-2,2 L-1,2 L-1,1 L0,1 Z " fill="#3F3F3F" transform="translate(30,0)"/>
<path d="M0,0 L5,0 L5,2 L6,2 L6,6 L5,6 L5,7 L4,7 L4,8 L1,8 L1,7 L0,7 L0,6 L-1,6 L-1,1 L0,1 Z " fill="#D7E2ED" transform="translate(35,151)"/>
<path d="M0,0 L1,0 L1,10 L0,10 L0,11 L-2,11 L-2,9 L-1,9 L-1,6 L0,6 Z " fill="#E1E2E2" transform="translate(203,144)"/>
</svg>
