<?xml version="1.0" encoding="UTF-8"?>
<svg version="1.1" xmlns="http://www.w3.org/2000/svg" width="204" height="192">
<path d="M0 0 C67.32 0 134.64 0 204 0 C204 63.36 204 126.72 204 192 C136.68 192 69.36 192 0 192 C0 128.64 0 65.28 0 0 Z " fill="#F7F8FA" transform="translate(0,0)"/>
<path d="M0 0 C67.32 0 134.64 0 204 0 C204 17.49 204 34.98 204 53 C136.68 53 69.36 53 0 53 C0 35.51 0 18.02 0 0 Z " fill="#1570B8" transform="translate(0,0)"/>
<path d="M0 0 C67.32 0 134.64 0 204 0 C204 17.16 204 34.32 204 52 C136.68 52 69.36 52 0 52 C0 34.84 0 17.68 0 0 Z " fill="#1570B8" transform="translate(0,140)"/>
<path d="M0 0 C32.01 0 64.02 0 97 0 C97 0.33 97 0.66 97 1 C95.52853516 1.12955078 95.52853516 1.12955078 94.02734375 1.26171875 C69.16423695 3.72907368 45.16116819 15.56070439 29 35 C28.56042969 35.91910156 28.12085937 36.83820312 27.66796875 37.78515625 C26.3125 40.5625 26.3125 40.5625 22 45 C14.74 45 7.48 45 0 45 C0 30.15 0 15.3 0 0 Z " fill="#FCFDFE" transform="translate(0,0)"/>
<path d="M0 0 C4.95 0 9.9 0 15 0 C15.9731681 2.9195043 16.1929546 5.05444951 16.31640625 8.10546875 C16.35830078 9.08837891 16.40019531 10.07128906 16.44335938 11.08398438 C16.48267578 12.10814453 16.52199219 13.13230469 16.5625 14.1875 C16.60568359 15.22326172 16.64886719 16.25902344 16.69335938 17.32617188 C16.79944366 19.8839819 16.90150146 22.44188845 17 25 C17.66 24.67 18.32 24.34 19 24 C19.43048541 21.46192976 19.74969063 18.99419068 20 16.4375 C20.61858678 10.80398648 21.40868048 5.45595266 23 0 C26.96 0 30.92 0 35 0 C35.39832031 1.61068359 35.39832031 1.61068359 35.8046875 3.25390625 C36.16139421 4.6901201 36.51816866 6.12631712 36.875 7.5625 C37.04902344 8.26697266 37.22304688 8.97144531 37.40234375 9.69726562 C37.57636719 10.39658203 37.75039063 11.09589844 37.9296875 11.81640625 C38.08679199 12.45006104 38.24389648 13.08371582 38.40576172 13.73657227 C39.22002761 16.83807558 40.11907631 19.91676709 41 23 C41.99 15.41 42.98 7.82 44 0 C48.95 0 53.9 0 59 0 C58.45169286 10.49346432 57.26161708 20.59829773 55.4375 30.9375 C55.20047351 32.31433308 54.96414272 33.69128612 54.72851562 35.06835938 C54.15913199 38.38008052 53.58055072 41.69021821 53 45 C46.4 45 39.8 45 33 45 C30 32.375 30 32.375 30 29 C29.34 29 28.68 29 28 29 C27.93941406 29.65226562 27.87882812 30.30453125 27.81640625 30.9765625 C27.73261719 31.85054687 27.64882813 32.72453125 27.5625 33.625 C27.48128906 34.48351562 27.40007813 35.34203125 27.31640625 36.2265625 C26.98120803 39.16471971 26.48616329 42.08302024 26 45 C19.73 45 13.46 45 7 45 C5.35879858 37.61459363 3.95485676 30.28777235 2.71289062 22.83325195 C2.37378264 20.80521961 2.02687782 18.77861547 1.6796875 16.75195312 C1.463125 15.45837891 1.2465625 14.16480469 1.0234375 12.83203125 C0.82669434 11.66389893 0.62995117 10.4957666 0.42724609 9.29223633 C0 6 0 6 0 0 Z " fill="#1F3547" transform="translate(5,74)"/>
<path d="M0 0 C30.03 0 60.06 0 91 0 C91 14.85 91 29.7 91 45 C84.07 45 77.14 45 70 45 C69.01 43.35 68.02 41.7 67 40 C59.30829103 27.83454194 47.51638 18.74191483 35 12 C33.97390625 11.44570312 32.9478125 10.89140625 31.890625 10.3203125 C21.728692 5.239346 11.06520946 3.18278546 0 1 C0 0.67 0 0.34 0 0 Z " fill="#FCFDFD" transform="translate(113,0)"/>
<path d="M0 0 C7.26 0 14.52 0 22 0 C29.2026558 7.34251319 29.2026558 7.34251319 30.9140625 10.45703125 C39.58719506 25.4156614 59.43997497 35.81353982 75.63671875 40.3828125 C79.40298845 41.36748488 83.18645149 42.21983934 87 43 C87 43.33 87 43.66 87 44 C58.29 44 29.58 44 0 44 C0 29.48 0 14.96 0 0 Z " fill="#FCFDFD" transform="translate(0,148)"/>
<path d="M0 0 C6.6 0 13.2 0 20 0 C20 14.52 20 29.04 20 44 C-8.38 44 -36.76 44 -66 44 C-66 43.67 -66 43.34 -66 43 C-64.47632812 42.65388672 -64.47632812 42.65388672 -62.921875 42.30078125 C-35.77018176 35.95014729 -16.67854971 22.23806628 0 0 Z " fill="#FBFCFD" transform="translate(184,148)"/>
<path d="M0 0 C7.0228125 -0.0928125 7.0228125 -0.0928125 14.1875 -0.1875 C15.65598389 -0.21481201 17.12446777 -0.24212402 18.63745117 -0.27026367 C19.80252197 -0.27775635 20.96759277 -0.28524902 22.16796875 -0.29296875 C23.35672607 -0.3086792 24.5454834 -0.32438965 25.77026367 -0.34057617 C29.31590796 0.03331254 31.17058165 0.87122417 34 3 C35.96400043 6.92800086 35.47443853 11.71740157 35 16 C33.125 18.6875 33.125 18.6875 31 20 C30.34 20 29.68 20 29 20 C29 20.66 29 21.32 29 22 C29.763125 22.103125 30.52625 22.20625 31.3125 22.3125 C34.23589031 23.06034403 35.22714335 23.60664352 37 26 C38.52016945 29.731325 38.56961601 34.04306745 38 38 C35 43.5 35 43.5 32 45 C29.59188686 45.08638888 27.21242109 45.11575201 24.8046875 45.09765625 C23.51030762 45.09515869 22.21592773 45.09266113 20.88232422 45.09008789 C19.22990723 45.08098389 17.57749023 45.07187988 15.875 45.0625 C10.63625 45.041875 5.3975 45.02125 0 45 C0 30.15 0 15.3 0 0 Z " fill="#1C3245" transform="translate(109,74)"/>
<path d="M0 0 C0.92425781 -0.01611328 1.84851563 -0.03222656 2.80078125 -0.04882812 C8.10008606 -0.05261876 11.96792437 0.25048055 16.5 3.3125 C19.32700669 7.55301004 19.16634326 11.33042189 18.5 16.3125 C17.40438603 18.65139765 16.1304957 20.27438038 14.5 22.3125 C14.5 22.9725 14.5 23.6325 14.5 24.3125 C15.139375 24.60125 15.77875 24.89 16.4375 25.1875 C18.5 26.3125 18.5 26.3125 19.5 28.3125 C20.01364421 33.46578289 20.03023214 37.96281819 18.125 42.8125 C12.9248289 47.76504391 6.54484508 48.47064387 -0.4375 48.625 C-6.25329614 48.48167947 -11.82774204 47.56307656 -17.5 46.3125 C-17.35892253 44.85369891 -17.21197585 43.39546449 -17.0625 41.9375 C-16.98128906 41.12539062 -16.90007812 40.31328125 -16.81640625 39.4765625 C-16.5 37.3125 -16.5 37.3125 -15.5 35.3125 C-8.9 35.6425 -2.3 35.9725 4.5 36.3125 C4.5 34.3325 4.5 32.3525 4.5 30.3125 C0.21 30.3125 -4.08 30.3125 -8.5 30.3125 C-8.5 26.3525 -8.5 22.3925 -8.5 18.3125 C-2.065 17.8175 -2.065 17.8175 4.5 17.3125 C4.5 15.3325 4.5 13.3525 4.5 11.3125 C-2.1 11.6425 -8.7 11.9725 -15.5 12.3125 C-15.83 9.0125 -16.16 5.7125 -16.5 2.3125 C-10.97696624 0.00203088 -5.88348069 -0.02051423 0 0 Z " fill="#223749" transform="translate(181.5,72.6875)"/>
<path d="M0 0 C10.56 0 21.12 0 32 0 C31.67 3.3 31.34 6.6 31 10 C25.39 10 19.78 10 14 10 C14 12.64 14 15.28 14 18 C18.95 18 23.9 18 29 18 C29 21.3 29 24.6 29 28 C24.05 28 19.1 28 14 28 C14 30.31 14 32.62 14 35 C20.27 35 26.54 35 33 35 C33 38.63 33 42.26 33 46 C22.11 46 11.22 46 0 46 C0 30.82 0 15.64 0 0 Z " fill="#213749" transform="translate(69,74)"/>
<path d="M0 0 C-2.40701432 2.41977234 -4.81935196 4.82767533 -7.2890625 7.18359375 C-14.65800226 14.29375803 -22.06641724 22.29616102 -27.27294922 31.16943359 C-29 33 -29 33 -31.72729492 33.45410156 C-32.80084229 33.4331543 -33.87438965 33.41220703 -34.98046875 33.390625 C-36.14384766 33.37773438 -37.30722656 33.36484375 -38.50585938 33.3515625 C-39.72080078 33.31804688 -40.93574219 33.28453125 -42.1875 33.25 C-43.41404297 33.23195312 -44.64058594 33.21390625 -45.90429688 33.1953125 C-48.93697759 33.14811124 -51.96810087 33.08227677 -55 33 C-53.08739303 29.07976225 -50.9399346 26.23392806 -48 23 C-47.34 23 -46.68 23 -46 23 C-45.67 22.01 -45.34 21.02 -45 20 C-42.66146901 18.10477832 -40.35360929 16.38102034 -37.875 14.6875 C-37.16013428 14.19765625 -36.44526855 13.7078125 -35.70874023 13.203125 C-28.81058715 8.62812122 -21.81877798 5.67604275 -14 3 C-13.08863281 2.66226562 -12.17726562 2.32453125 -11.23828125 1.9765625 C-7.38917189 0.5896107 -4.15322957 -0.40192544 0 0 Z " fill="#B6DAF8" transform="translate(90,11)"/>
<path d="M0 0 C20.45606865 3.02120399 39.70240254 13.05639496 53.359375 28.703125 C55 31 55 31 55 33 C32.66727788 35.06784464 32.66727788 35.06784464 26.8515625 31.78857422 C23.23724904 28.43833472 21.23003608 24.33443633 19 20 C17.6875506 18.64610483 16.3600215 17.30609995 15 16 C15 15.34 15 14.68 15 14 C14.01 13.67 13.02 13.34 12 13 C12 12.34 12 11.68 12 11 C11.01 10.67 10.02 10.34 9 10 C5.65571025 6.91296331 2.7773563 3.60027668 0 0 Z " fill="#B6DAF8" transform="translate(116,11)"/>
<path d="M0 0 C6.31957324 -0.50883951 12.62014062 -0.79786984 18.9609375 -0.66796875 C20.00556152 -0.65016357 21.05018555 -0.6323584 22.12646484 -0.61401367 C25.81853161 0.17490289 27.21376844 1.65207729 29.625 4.5 C30.12 5.49257812 30.615 6.48515625 31.125 7.5078125 C33.62554503 12.16507762 36.97620056 15.58770471 40.625 19.375 C41.57753662 20.39110352 41.57753662 20.39110352 42.54931641 21.42773438 C46.16725932 25.251253 49.88336724 28.71936036 54 32 C49.57405498 33.47531501 46.40261465 31.89232589 42.0625 30.5 C41.20873779 30.22736328 40.35497559 29.95472656 39.4753418 29.67382812 C29.1592252 26.23609701 20.43361352 20.84546552 12 14 C11.38382813 13.50628906 10.76765625 13.01257813 10.1328125 12.50390625 C6.27186008 9.31406359 3.00867378 6.01156504 0 2 C0 1.34 0 0.68 0 0 Z " fill="#B5D9F8" transform="translate(35,149)"/>
<path d="M0 0 C1.16982422 0.03158203 2.33964844 0.06316406 3.54492188 0.09570312 C6.42833837 0.17808645 9.30663487 0.29305993 12.1875 0.4375 C8.93564563 7.4273156 3.53660093 12.40769434 -2.625 16.875 C-3.26735596 17.34164062 -3.90971191 17.80828125 -4.5715332 18.2890625 C-14.83222617 25.49561053 -27.23561122 31.86815184 -39.8125 33.4375 C-40.4725 33.1075 -41.1325 32.7775 -41.8125 32.4375 C-40.83410156 31.55449219 -39.85570313 30.67148438 -38.84765625 29.76171875 C-26.3425317 18.93983739 -26.3425317 18.93983739 -16.91235352 5.58129883 C-13.10985772 -1.47716758 -7.28511358 -0.37139795 0 0 Z " fill="#B6DAF8" transform="translate(158.8125,148.5625)"/>
<path d="M0 0 C8.58 0 17.16 0 26 0 C26 8.91 26 17.82 26 27 C16.00314481 20.33542987 6.70648067 12.07944595 0 2 C0 1.34 0 0.68 0 0 Z " fill="#B6DAF8" transform="translate(72,149)"/>
<path d="M0 0 C8.58 0 17.16 0 26 0 C21.63433457 8.73133085 13.32345845 16.59003848 6 23 C5.34 23 4.68 23 4 23 C4 23.66 4 24.32 4 25 C2.02 25.99 2.02 25.99 0 27 C0 18.09 0 9.18 0 0 Z " fill="#B7DBF9" transform="translate(108,149)"/>
<path d="M0 0 C0 8.91 0 17.82 0 27 C-8.25 27 -16.5 27 -25 27 C-20.88564519 18.77129039 -13.44748659 12.3598221 -7 5.875 C-6.42403076 5.29435791 -5.84806152 4.71371582 -5.25463867 4.11547852 C-1.12306714 0 -1.12306714 0 0 0 Z " fill="#B7DBF9" transform="translate(98,17)"/>
<path d="M0 0 C8.73674845 7.48864153 18.13173934 15.64697609 25 25 C25 25.66 25 26.32 25 27 C16.75 27 8.5 27 0 27 C0 18.09 0 9.18 0 0 Z " fill="#B7DBF9" transform="translate(108,17)"/>
<path d="M0 0 C1.47906892 -0.02689216 2.95827483 -0.04634621 4.4375 -0.0625 C5.26121094 -0.07410156 6.08492187 -0.08570312 6.93359375 -0.09765625 C9 0 9 0 10 1 C10.125 4 10.125 4 10 7 C9 8 9 8 6.93359375 8.09765625 C6.10988281 8.08605469 5.28617187 8.07445313 4.4375 8.0625 C3.61121094 8.05347656 2.78492187 8.04445313 1.93359375 8.03515625 C1.29550781 8.02355469 0.65742187 8.01195313 0 8 C0 5.36 0 2.72 0 0 Z " fill="#E0E2E4" transform="translate(122,101)"/>
<path d="M0 0 C6.15234375 -0.09765625 6.15234375 -0.09765625 8 0 C9 1 9 1 9.0625 3.5625 C9.041875 4.366875 9.02125 5.17125 9 6 C6.04335481 7.4783226 3.25770263 7.06032783 0 7 C0 4.69 0 2.38 0 0 Z " fill="#DEE0E2" transform="translate(122,84)"/>
<path d="M0 0 C8.91 0 17.82 0 27 0 C27 0.33 27 0.66 27 1 C18.42 1 9.84 1 1 1 C1.66 2.32 2.32 3.64 3 5 C2.01 5 1.02 5 0 5 C0 3.35 0 1.7 0 0 Z " fill="#2C7BBF" transform="translate(71,148)"/>
<path d="M0 0 C0.33 0 0.66 0 1 0 C1.309375 0.969375 1.61875 1.93875 1.9375 2.9375 C2.69523342 5.84065792 2.69523342 5.84065792 4 7 C4.04080783 8.99958364 4.04254356 11.00045254 4 13 C3.01 13.33 2.02 13.66 1 14 C0.04738513 9.23692563 -0.08333357 4.8333472 0 0 Z " fill="#A7ADB3" transform="translate(21,85)"/>
<path d="M0 0 C1.258125 -0.020625 2.51625 -0.04125 3.8125 -0.0625 C4.52019531 -0.07410156 5.22789063 -0.08570313 5.95703125 -0.09765625 C8 0 8 0 11 1 C11 1.66 11 2.32 11 3 C11.99 3 12.98 3 14 3 C14 3.66 14 4.32 14 5 C12.03964825 4.55037804 10.08175691 4.09001752 8.125 3.625 C7.03445312 3.36976562 5.94390625 3.11453125 4.8203125 2.8515625 C2 2 2 2 0 0 Z " fill="#3381C2" transform="translate(120,11)"/>
<path d="M0 0 C1.98 1.65 3.96 3.3 6 5 C5.67 5.99 5.34 6.98 5 8 C0 2.25 0 2.25 0 0 Z " fill="#2279BD" transform="translate(72,163)"/>
<path d="M0 0 C0.66 0 1.32 0 2 0 C2.33 1.65 2.66 3.3 3 5 C2.01 5.495 2.01 5.495 1 6 C0.34 6.99 -0.32 7.98 -1 9 C-0.67 6.03 -0.34 3.06 0 0 Z " fill="#C0C5C9" transform="translate(33,103)"/>
</svg>
